<?xml version="1.0" encoding="utf-8"?>
<!-- Generator: Adobe Illustrator 15.0.0, SVG Export Plug-In . SVG Version: 6.00 Build 0)  -->
<!DOCTYPE svg PUBLIC "-//W3C//DTD SVG 1.1//EN" "http://www.w3.org/Graphics/SVG/1.1/DTD/svg11.dtd">
<svg version="1.1" id="Capa_1" xmlns="http://www.w3.org/2000/svg" xmlns:xlink="http://www.w3.org/1999/xlink" x="0px" y="0px"
	 width="394.328px" height="65.216px" viewBox="0 0 394.328 65.216" enable-background="new 0 0 394.328 65.216"
	 xml:space="preserve">
<g>
	<path fill-rule="evenodd" clip-rule="evenodd" fill="#F36C53" d="M197.064,17.632l3.146,0.283c1.758,1.077,2.778,0.227,3.657,3.09
		l0.057,1.049c0.453,0.624,0.255,0.879,0.198,1.729l-0.766,3.487l-0.878,2.665l-1.361,3.089l-1.275,1.899
		c-5.103,1.475-0.737-8.9-3.657-17.093L197.064,17.632z"/>
	<path fill-rule="evenodd" clip-rule="evenodd" fill="#443C39" d="M36.425,17.943l-3.288-0.17c-2.58-4.734-7.115-11.565-1.899-15.59
		c0.227-0.737,3.118,0.68,3.883,0.765c0.595,0.482,1.757,1.672,2.919,2.863c2.551,2.608,1.587,2.693,1.134,4.11
		C38.608,11.821,37.984,14.797,36.425,17.943L36.425,17.943z"/>
	<path fill-rule="evenodd" clip-rule="evenodd" d="M287.092,40.876c-0.227,2.494-3.146,8.646-3.061,10.517l10.856,0.028
		l11.026-34.158l-11.14-0.057l-6.35,19.871c-11.169,1.956-4.593-5.811-0.936-19.842h-11.934c-1.021,1.701-5.131,15.25-5.33,17.49
		C269.405,43.03,280.29,40.195,287.092,40.876L287.092,40.876z"/>
	<path fill-rule="evenodd" clip-rule="evenodd" fill="#EE1D23" d="M181.219,37.162l5.102-16.299
		c8.136-1.333,6.208,3.742,4.451,9.014C188.844,35.547,187.823,37.616,181.219,37.162L181.219,37.162z M197.064,17.632l3.146,0.283
		c1.758,1.077,2.778,0.227,3.657,3.09l0.057,1.049c0.453,0.624,0.255,0.879,0.198,1.729l-0.766,3.487l-0.878,2.665l-1.361,3.089
		l-1.275,1.899c-0.879-0.736-0.851-1.615-0.396-2.438l0.227-5.103v-1.616l-0.936-4.224l-0.567-1.247l-1.984-2.466L197.064,17.632z
		 M200.21,17.915c-2.154-1.36-20.012-0.822-23.896-0.822l-10.857,34.214l11.14,0.057l3.374-10.545
		c6.917-0.567,15.959,1.587,20.41-5.386c1.785-2.807,5.187-11.565,3.741-14.967C203.499,18.992,201.77,17.943,200.21,17.915
		L200.21,17.915z"/>
	<path fill-rule="evenodd" clip-rule="evenodd" d="M253.02,21.005c1.843-0.708,4.309-0.51,4.422,1.956
		c0.057,1.616-2.636,12.954-6.065,14.258c-0.879,0.313-2.467,0.369-3.402,0.113c-2.607-0.708-0.595-6.009-0.028-7.625
		C248.91,26.759,249.958,22.167,253.02,21.005L253.02,21.005z M252.369,17.263c-10.999,0.482-13.408,2.211-16.611,12.728
		c-1.219,3.912-3.09,8.448,2.098,10.006c3.458,1.049,10.205,1.049,13.89,0.907c11.141-0.426,13.267-2.154,16.611-12.614
		c1.304-4.082,3.09-8.532-2.183-10.12C262.771,17.15,255.997,17.122,252.369,17.263L252.369,17.263z"/>
	<path fill-rule="evenodd" clip-rule="evenodd" d="M0,56.381c3.26,0.171,22.507,0.397,24.463-0.113
		c1.219-3.571,0.793-7.058,0.793-11.451c0-2.807,0.34-9.95-0.085-12.218c-3.883-1.077-4.932-0.539-8.759-3.005
		c-3.005-1.927-4.11-4.224-5.641-6.066L0,56.381z"/>
	<path fill-rule="evenodd" clip-rule="evenodd" d="M47.82,40.933l11.027,0.028l6.406-19.928c8.334-1.049,6.888,1.843,4.762,8.107
		c-1.304,3.827-2.466,7.965-3.883,11.708l12.075,0.113c1.049-3.515,2.41-7.144,3.572-10.63c4.28-12.756,1.304-13.125-11.934-13.125
		c-4.621,0-9.808-0.227-14.372,0.028C54.992,17.858,48.019,39.401,47.82,40.933L47.82,40.933z"/>
	<path fill-rule="evenodd" clip-rule="evenodd" d="M318.67,27.326c0.313-2.523,1.984-5.726,4.706-6.18
		c4.818-0.822,3.543,3.231,2.749,6.236L318.67,27.326z M332.844,40.904c0.51-0.907,1.049-2.438,0.964-3.43
		c-4.082-0.114-8.334-0.057-12.444-0.057c-1.475,0-4.365,0.396-4.791-1.503c-0.227-1.134,0.397-4.422,1.049-5.386l18.652-0.028
		c0.822-2.098,2.636-8.476,1.615-10.375c-2.041-3.855-18-2.976-21.968-2.353c-7.144,1.105-9.156,7.143-10.971,14.23
		c-0.964,3.827-1.417,7.143,3.146,8.305c3.316,0.822,8.589,0.652,12.076,0.652C323.801,40.961,329.499,41.301,332.844,40.904
		L332.844,40.904z"/>
	<path fill-rule="evenodd" clip-rule="evenodd" d="M121.209,27.326c0.368-2.551,1.956-5.698,4.677-6.18
		c4.649-0.822,3.827,3.26,2.778,6.236L121.209,27.326z M135.354,40.933c0.51-0.709,1.049-2.58,1.105-3.43
		c-4.082-0.199-8.476-0.085-12.614-0.085c-1.502,0-4.281,0.368-4.706-1.56c-0.255-1.219,0.453-4.195,0.992-5.329l18.595-0.028
		c0.935-1.672,2.58-8.306,1.871-10.12c-1.587-4.195-18.113-3.203-21.77-2.665c-3.487,0.51-6.009,1.814-7.824,4.904
		c-1.304,2.239-2.778,6.52-3.401,9.071c-0.964,3.827-1.729,7.455,3.005,8.589c3.458,0.851,8.447,0.681,12.047,0.681
		C126.652,40.961,131.442,41.188,135.354,40.933L135.354,40.933z"/>
	<path fill-rule="evenodd" clip-rule="evenodd" d="M386.645,40.961c0.482-0.709,1.077-2.58,1.105-3.486l-7.341-0.028
		c0.057-1.135,4.79-15.903,5.272-16.64l7.625,0.028l1.021-3.316c-1.673-0.482-5.557-0.029-7.54-0.199l3.26-10.488L379.048,6.69
		c-0.566,1.021-8.277,25.285-9.468,29.197c-0.708,2.353-1.757,4.592,1.56,4.961C375.279,41.301,382.308,41.074,386.645,40.961
		L386.645,40.961z"/>
	<path fill-rule="evenodd" clip-rule="evenodd" d="M100.97,40.876l1.077-3.373l-7.427-0.057c0.057-1.135,4.734-15.79,5.244-16.611
		h7.625l1.021-3.316c-1.673-0.51-5.556-0.057-7.541-0.199c0.085-2.211,3.231-8.674,3.146-10.545L93.231,6.69
		c-0.879,1.757-7.994,24.747-9.524,29.423c-0.822,2.552-1.587,4.451,1.814,4.734C87.987,41.074,98.986,41.272,100.97,40.876
		L100.97,40.876z"/>
	<path fill-rule="evenodd" clip-rule="evenodd" d="M364.507,40.904c0.425-0.822,0.991-2.552,0.963-3.43
		c-12.841-0.426-16.61,2.664-12.557-9.354c0.935-2.75,2.098-6.435,5.329-7.144c3.401-0.737,8.929,0.227,12.557-0.17
		c0.596-0.681,1.135-2.41,1.106-3.317c-1.814-0.51-17.405-0.085-19.984,0.284c-6.52,0.907-8.617,3.657-10.857,9.524
		c-0.821,2.154-1.927,5.896-1.898,8.164c0,3.486,2.154,4.479,5.244,5.017C347.527,41.046,361.502,41.357,364.507,40.904
		L364.507,40.904z"/>
	<path fill-rule="evenodd" clip-rule="evenodd" d="M139.549,40.876l10.885,0.085c1.049-1.758,3.316-11.537,5.357-15.109
		c3.6-6.35,12.189-4.252,15.647-4.989c0.454-0.766,1.163-2.721,1.077-3.543c-1.502-0.369-6.491,0.028-8.249,0.227
		c-1.248,0.142-2.438,0.34-3.628,0.68c-0.964,0.283-2.466,1.19-3.062,1.275l0.567-2.154c-0.765-0.17-9.893-0.255-10.545-0.113
		c-1.077,0.227-2.324,5.556-3.004,7.54C143.886,26.873,139.464,39.799,139.549,40.876L139.549,40.876z"/>
	<path fill-rule="evenodd" clip-rule="evenodd" d="M221.442,19.417l-0.481,0.397l0.028-0.482l0.596-2.041L210.5,17.235l-7.71,23.669
		l11.111,0.057c2.041-4.422,2.892-10.715,5.272-15.081c3.005-5.499,9.95-4.734,15.676-4.96l1.247-3.6
		C233.149,16.753,223.852,17.519,221.442,19.417L221.442,19.417z"/>
	<path fill-rule="evenodd" clip-rule="evenodd" fill="#EE1D23" d="M25.143,30.558l0.113-30.529
		c-1.899-0.113-4.139,0.596-5.754,1.361c-2.834,1.361-2.324,1.105-3.231,3.997c-1.162,3.685-2.353,7.398-3.543,11.083
		c-0.737,2.239-1.616,3.203-0.51,5.329c0.878,1.644,1.531,2.976,2.919,4.28C17.688,28.488,21.43,30.813,25.143,30.558L25.143,30.558
		z"/>
	<path fill-rule="evenodd" clip-rule="evenodd" d="M32.967,40.876l10.97,0.085l7.738-23.613l-8.419-0.113
		c-1.417,3.005-0.255,5.613-5.981,11.083C36.595,28.97,33.108,39.572,32.967,40.876L32.967,40.876z"/>
	<path fill-rule="evenodd" clip-rule="evenodd" d="M36.425,17.943l-1.814-0.992l-0.085-3.316l0.028-1.984
		c-0.057-1.616-0.68-3.713-1.333-5.159l-0.595-1.417l-0.68-1.304c-0.652-0.794-0.17-0.907,0.227-1.219
		c0.227-0.737,2.183,0.312,2.948,0.397C32.598,1.304,29.99,0.028,26.929,0l-0.113,30.586c1.531,0,3.26-0.425,4.592-0.936
		c2.183-0.822,1.729-0.963,2.438-3.089C34.384,24.945,36.482,19.219,36.425,17.943L36.425,17.943z"/>
	<path fill-rule="evenodd" clip-rule="evenodd" d="M209.338,59.188l2.069,0.113l-1.673,3.799l3.346-0.113
		c1.757-3.431,0.991-3.912,3.373-3.714c0.113,1.304-0.936,2.409-1.361,3.799l3.346-0.028c0.708-1.077,1.644-2.722,1.417-4.082
		c-1.304-0.766-11.565-0.709-13.38-0.396l-1.984,4.535l3.09-0.113L209.338,59.188z"/>
	<path fill-rule="evenodd" clip-rule="evenodd" fill="#EE1D23" d="M26.844,32.542l-0.057,15.761
		c0.992-1.049,5.584-16.356,5.669-16.923C30.756,31.635,30.472,32.06,26.844,32.542L26.844,32.542z"/>
	<path fill-rule="evenodd" clip-rule="evenodd" d="M183.175,62.249c-0.085-0.737,0.198-1.645,0.68-2.324
		c0.539-0.737,1.219-0.652,2.126-0.624c-0.028,0.879-0.766,2.438-1.389,3.09L183.175,62.249z M178.072,64.971
		c1.332,0.481,6.973,0.227,8.362-0.539c1.077-0.566,2.919-4.733,3.203-5.953c-1.814-0.057-5.443-0.198-7.115,0.143
		c-1.616,0.312-3.288,2.268-2.75,3.939c1.247,0.766,3.118,0.511,4.564,0.511C183.458,65.877,178.979,63.185,178.072,64.971
		L178.072,64.971z"/>
	<path fill-rule="evenodd" clip-rule="evenodd" d="M248.768,62.221c-0.17-1.928,0.992-3.033,2.977-2.863l-1.36,3.005L248.768,62.221
		z M255.288,58.564c-1.275-0.256-5.697-0.199-7.029,0.028c-1.814,0.312-3.231,2.154-2.863,3.911
		c1.304,0.907,3.062,0.397,4.592,0.652l-0.765,1.956h2.976L255.288,58.564z"/>
	<path fill-rule="evenodd" clip-rule="evenodd" d="M169.256,62.249c-0.057-0.766,0.227-1.587,0.737-2.268
		c0.539-0.766,1.219-0.737,2.268-0.596l-1.361,2.977L169.256,62.249z M175.748,58.507c-3.033-0.227-10.772-0.991-9.893,4.054
		c1.19,0.737,6.435,0.681,7.909,0.454L175.748,58.507z"/>
	<path fill-rule="evenodd" clip-rule="evenodd" d="M225.156,62.391l-1.445-0.085c-0.199-1.843,0.906-3.203,2.862-2.92
		C226.375,60.378,225.836,61.597,225.156,62.391L225.156,62.391z M228.189,62.986l2.069-4.422c-1.871-0.199-3.799-0.143-5.613-0.086
		c-1.927,0.086-2.919,0.199-3.883,1.899c-1.247,2.239-0.567,2.608,1.729,2.693C224.022,63.128,226.771,63.213,228.189,62.986
		L228.189,62.986z"/>
	<path fill-rule="evenodd" clip-rule="evenodd" d="M292.421,62.249c0-1.616,1.077-3.458,2.948-2.92
		C295.37,60.974,294.377,62.816,292.421,62.249L292.421,62.249z M289.048,62.504c1.843,1.162,10.743,1.39,9.666-3.458
		C297.099,58.025,288.056,57.458,289.048,62.504L289.048,62.504z"/>
	<path fill-rule="evenodd" clip-rule="evenodd" d="M368.475,62.249c0.028-1.616,1.105-3.486,2.977-2.92
		C371.48,60.974,370.431,62.788,368.475,62.249L368.475,62.249z M365.13,62.504c1.843,1.162,10.743,1.39,9.666-3.458
		C373.209,58.054,364.138,57.43,365.13,62.504L365.13,62.504z"/>
	<path fill-rule="evenodd" clip-rule="evenodd" d="M192.841,62.221c-0.113-1.474,1.049-3.571,2.891-2.863
		C195.76,60.917,194.74,62.788,192.841,62.221L192.841,62.221z M189.439,62.532c2.325,1.305,10.715,1.162,9.666-3.486
		c-1.445-0.907-4.847-0.681-6.548-0.453C190.63,58.848,189.071,60.719,189.439,62.532L189.439,62.532z"/>
	<path fill-rule="evenodd" clip-rule="evenodd" d="M258.349,62.249c-0.113-1.36,0.907-2.466,1.305-3.771l-3.346,0.028
		c-0.68,1.135-1.587,2.722-1.36,4.025c1.247,0.822,6.236,0.652,7.938,0.511l2.012-4.536h-3.117l-1.843,3.855L258.349,62.249z"/>
	<path fill-rule="evenodd" clip-rule="evenodd" d="M336.784,62.277c-0.142-1.275,0.822-2.551,1.305-3.799l-3.261,0.028
		c-0.623,0.851-1.785,2.977-1.445,4.025c1.219,0.879,6.293,0.652,7.938,0.482l1.955-4.536l-3.032-0.028l-1.786,3.912L336.784,62.277
		z"/>
	<path fill-rule="evenodd" clip-rule="evenodd" d="M303.364,59.188l1.672,0.085c0.171,1.247-0.821,2.58-1.332,3.771h3.26
		c0.681-0.879,1.843-2.977,1.475-4.11c-1.305-0.737-6.265-0.567-7.909-0.397l-1.984,4.564h2.977L303.364,59.188z"/>
	<path fill-rule="evenodd" clip-rule="evenodd" d="M379.446,59.188l1.672,0.085c0.142,1.247-0.822,2.58-1.332,3.799l3.26-0.028
		c0.624-0.851,1.871-3.033,1.417-4.054c-1.049-0.851-6.321-0.624-7.88-0.482l-1.956,4.593h2.977L379.446,59.188z"/>
	<path fill-rule="evenodd" clip-rule="evenodd" d="M268.667,60.321c0.481-1.049,1.049-1.219,2.239-0.992l-0.057,0.936
		C270.056,60.548,269.518,60.52,268.667,60.321L268.667,60.321z M273.515,61.002c0.623-0.709,0.68-1.162,0.538-2.013
		c-1.445-0.737-4.933-0.652-6.576-0.368c-1.531,0.283-3.401,2.296-2.722,3.911c0.539,0.709,7.626,1.021,8.136,0.085
		c-1.247-0.68-3.486,0.256-4.848-0.51l0.114-1.021L273.515,61.002z"/>
	<path fill-rule="evenodd" clip-rule="evenodd" d="M312.775,59.442c1.417-1.021,5.073,0.511,6.18-0.708
		c-0.851-0.596-4.649-0.313-5.981-0.284c-1.956,0.028-3.629,0.228-3.629,2.467c1.531,0.651,3.827,0.142,5.074,0.964
		c-1.021,1.474-4.988-0.369-6.265,0.936l0.341,0.17c0.907,0.255-0.596-0.057,0.396,0.085l5.301,0.028
		c2.013-0.057,3.515-0.198,3.571-2.495c-0.793-0.396-1.672-0.396-2.607-0.481C312.179,59.84,313.001,60.038,312.775,59.442
		L312.775,59.442z"/>
	<path fill-rule="evenodd" clip-rule="evenodd" d="M239.3,59.131c0.567,0,0.369-0.028,0.737-0.396L234,58.45
		c-1.842,0.057-3.6,0.256-3.543,2.438c1.502,0.765,3.713,0.198,5.046,0.964c-1.19,1.7-4.904-0.482-6.265,0.964
		c0.651,0.481,4.903,0.283,5.98,0.283c1.729-0.028,3.771-0.198,3.657-2.296c-1.247-1.19-3.714-0.228-5.046-1.134
		C234.51,58.564,237.997,59.131,239.3,59.131L239.3,59.131z"/>
	<path fill-rule="evenodd" clip-rule="evenodd" d="M318.302,62.958c0.992,0.17,1.843,0.113,2.835,0.142
		c1.077,0,1.785,0.283,2.296-0.539l-1.984-0.227l1.389-3.09c1.134-0.17,1.814,0.255,2.467-0.481
		c-0.737-0.454-1.021-0.228-2.013-0.313l0.736-1.983l-3.005-0.028C320.287,57.855,318.076,61.625,318.302,62.958L318.302,62.958z"/>
	<path fill-rule="evenodd" clip-rule="evenodd" d="M343.077,62.447c1.134,0.851,3.94,0.652,5.67,0.652
		c1.049,0,1.275,0.255,1.672-0.482c-0.907-0.481-2.607-0.113-3.798-0.368c-0.199-1.021,0.368-2.551,1.474-2.948
		c1.247-0.453,3.373,0.454,4.195-0.595c-0.907-0.539-5.018-0.284-6.293-0.028C344.239,59.018,342.878,60.52,343.077,62.447
		L343.077,62.447z"/>
	<path fill-rule="evenodd" clip-rule="evenodd" d="M355.521,62.249c-0.227-1.105,0.453-2.693,1.645-3.005
		c1.247-0.312,3.203,0.454,4.024-0.51c-0.878-0.567-5.216-0.313-6.491-0.028c-1.672,0.368-2.92,2.013-2.721,3.713
		c0.368,0.709,6.689,1.275,7.313,0.028L355.521,62.249z"/>
	<path fill-rule="evenodd" clip-rule="evenodd" d="M283.606,62.164c-0.17-1.077,0.652-2.58,1.616-2.892
		c1.219-0.368,3.26,0.454,4.082-0.566c-1.049-0.539-4.961-0.313-6.407-0.028c-1.615,0.34-3.146,2.126-2.664,3.798
		c0.453,0.652,6.633,1.134,7.229,0.113C286.469,62.051,284.768,62.646,283.606,62.164L283.606,62.164z"/>
	<polygon fill-rule="evenodd" clip-rule="evenodd" points="180.878,56.409 177.845,56.438 174.813,63.043 177.931,63.071 	"/>
	<path fill-rule="evenodd" clip-rule="evenodd" d="M324.284,62.958l3.118,0.142c0.623-1.021,0.935-2.722,1.927-3.373
		c1.247-0.794,3.459,0.057,4.28-1.021c-0.878-0.567-2.239-0.057-3.373-0.028c-1.077,0.028-1.105-0.397-3.826-0.171L324.284,62.958z"
		/>
	<polygon fill-rule="evenodd" clip-rule="evenodd" points="365.329,58.479 362.324,58.45 360.255,63.1 363.344,63.015 	"/>
	<path fill-rule="evenodd" clip-rule="evenodd" fill="#020202" d="M38.466,24.151c1.389-1.644,2.75-4.791,2.665-6.888
		c-1.021,0.198-0.822,0.708-1.616,3.203C39.118,21.657,38.551,22.933,38.466,24.151L38.466,24.151z"/>
	<path fill-rule="evenodd" clip-rule="evenodd" fill="#050505" d="M368.958,57.686c2.919,0.368,3.203-0.17,5.584-1.247
		C372.302,56.353,370.459,56.013,368.958,57.686L368.958,57.686z"/>
	<path fill-rule="evenodd" clip-rule="evenodd" fill="#050505" d="M224.107,57.686c2.692,0.312,3.288-0.057,5.527-1.247
		C227.367,56.353,225.609,56.013,224.107,57.686L224.107,57.686z"/>
	<polygon fill-rule="evenodd" clip-rule="evenodd" fill="#020202" points="362.58,57.686 365.726,57.742 366.292,56.467 
		363.203,56.438 	"/>
	<polygon fill-rule="evenodd" clip-rule="evenodd" fill="#868686" points="221.442,19.417 220.989,19.333 220.96,19.814 	"/>
</g>
</svg>
